<svg xmlns="http://www.w3.org/2000/svg" xmlns:svg="http://www.w3.org/2000/svg" id="svg4375" width="25" height="25" version="1.1" viewBox="0 0 25 25"><metadata id="metadata4380"/><g id="layer1" transform="translate(-481.78571,-765.57648)"><path style="fill:#333;fill-opacity:1;stroke:none;stroke-width:40;stroke-miterlimit:4;stroke-dasharray:none;stroke-dashoffset:0;stroke-opacity:1" id="path4974" d="M 12.435547 0.25195312 A 12.247461 12.247461 0 0 0 0.25195312 12.542969 A 12.247461 12.247461 0 0 0 12.521484 24.748047 A 12.247461 12.247461 0 0 0 24.748047 12.5 L 24.748047 12.414062 A 12.247461 12.247461 0 0 0 12.435547 0.25195312 z M 12.443359 1.7773438 A 10.722535 10.722535 0 0 1 23.222656 12.425781 L 23.222656 12.5 A 10.722535 10.722535 0 0 1 12.519531 23.222656 A 10.722535 10.722535 0 0 1 1.7773438 12.537109 A 10.722535 10.722535 0 0 1 12.443359 1.7773438 z" transform="translate(481.78571,765.57648)"/><g style="font-style:normal;font-weight:400;font-size:28.94037247px;line-height:125%;font-family:sans-serif;letter-spacing:0;word-spacing:0;fill:#333;fill-opacity:1;stroke:none;stroke-width:1px;stroke-linecap:butt;stroke-linejoin:miter;stroke-opacity:1" id="text4681" transform="matrix(0.97979694,0,0,0.97979694,9.9860797,15.719519)"><path style="font-style:normal;font-variant:normal;font-weight:400;font-stretch:normal;font-size:25px;font-family:theme-icons;-inkscape-font-specification:theme-icons;fill:#333;fill-opacity:1" id="path4958" d="m 495.06696,777.75909 c -0.0121,-2.55092 0.0242,-5.10463 -0.0183,-7.6538 -0.24605,-1.06488 -1.83619,-0.56241 -1.54413,0.44153 0.0151,2.58798 -0.0301,5.18573 0.0224,7.76765 0.47642,0.74869 1.2494,1.30044 1.85129,1.96731 0.84626,0.81181 1.64001,1.6895 2.52094,2.45779 0.99181,0.37376 1.46268,-1.09136 0.60449,-1.54394 -1.14556,-1.14549 -2.29102,-2.29118 -3.43664,-3.43654 z"/></g></g></svg>