<svg xmlns="http://www.w3.org/2000/svg" xmlns:svg="http://www.w3.org/2000/svg" id="svg3656" width="165.333" height="165.333" version="1.1" viewBox="0 0 155 155"><metadata id="metadata3661"/><g id="layer1" transform="translate(21.090698,-426.85254)"><rect style="fill:#ff7a7a;fill-opacity:0;stroke:none;stroke-width:40;stroke-miterlimit:4;stroke-dasharray:none;stroke-dashoffset:0;stroke-opacity:1" id="rect3685" width="155" height="155" x="-21.091" y="426.853"/><g id="g4690" transform="translate(-75.559181,1195.8539)"><path id="rect4130" style="fill:#66666f;fill-opacity:1" d="m 111.81967,-755.99166 2.56454,9.71927 76.49055,76.49055 c 9.80958,9.80959 9.80958,25.60408 0,35.41366 -9.80959,9.80958 -25.60408,9.80958 -35.41366,0 l -76.49055,-76.49055 -9.719278,-2.56454 z"/><path id="path4133" style="fill:#fff;fill-opacity:1" d="m 139.16786,-713.55076 46.95261,46.95261 c 7.61128,7.61128 7.61128,19.86617 0,27.47745 -7.61128,7.61128 -19.86618,7.61128 -27.47746,0 l -46.9526,-46.9526 z"/><circle id="path4135" cx="592.644" cy="-414.352" r="4.638" style="fill:#fff;fill-opacity:1" transform="matrix(0.70710678,-0.70710678,0.70710678,0.70710678,0,0)"/><circle id="path4137" cx="575.778" cy="-397.488" r="4.638" style="fill:#66666f;fill-opacity:1" transform="matrix(0.70710678,-0.70710678,0.70710678,0.70710678,0,0)"/><circle id="path4139" cx="586.68" cy="-385.62" r="6.26" style="fill:#66666f;fill-opacity:1" transform="matrix(0.70710678,-0.70710678,0.70710678,0.70710678,0,0)"/><circle id="path4141" cx="593.487" cy="-464.944" r="4.638" style="fill:#66666f;fill-opacity:1" transform="matrix(0.70710678,-0.70710678,0.70710678,0.70710678,0,0)"/><circle id="path4143" cx="578.447" cy="-475.197" r="7.304" style="fill:#66666f;fill-opacity:1" transform="matrix(0.70710678,-0.70710678,0.70710678,0.70710678,0,0)"/></g></g></svg>