<svg xmlns="http://www.w3.org/2000/svg" xmlns:svg="http://www.w3.org/2000/svg" id="svg3656" width="165.333" height="165.333" version="1.1" viewBox="0 0 155 155"><metadata id="metadata3661"/><g id="layer1" transform="translate(21.090698,-426.85254)"><rect style="fill:#ff7a7a;fill-opacity:0;stroke:none;stroke-width:40;stroke-miterlimit:4;stroke-dasharray:none;stroke-dashoffset:0;stroke-opacity:1" id="rect3685" width="155" height="155" x="-21.091" y="426.853"/><g style="fill:#666;fill-opacity:1" id="g4873" transform="matrix(4.5021974,0,0,4.5021974,-100.44612,347.47434)"><path id="path4875" d="m 49.042,48.601 -6.458,-6.354 c 0.084,-0.279 0.197,-0.711 0.122,-0.785 l -2.413,-2.383 0.141,-0.143 c 0.049,-0.05 0.049,-0.13 -0.002,-0.179 L 40.37,38.695 c -0.05,-0.048 -0.13,-0.048 -0.178,10e-4 l -0.142,0.143 -0.128,-0.127 -0.012,-1.947 -0.028,0.029 c 0.02,-0.03 0.023,-0.064 0.013,-0.098 l 0.003,-0.003 -0.011,-0.011 c -0.005,-0.009 -0.01,-0.019 -0.018,-0.026 -0.009,-0.007 -0.018,-0.013 -0.027,-0.018 l -1.271,-1.257 -9.454,-9.338 -0.826,-0.817 1.151,-1.167 c 0.087,-0.087 0.086,-0.229 -0.002,-0.315 l -0.11,-0.11 c -0.088,-0.086 -0.23,-0.086 -0.316,0.002 l -1.354,1.37 -3.615,-3.543 0.424,-0.429 c 0.117,-0.118 0.116,-0.311 -0.002,-0.428 -0.118,-0.115 -0.311,-0.114 -0.427,0.004 l -3.613,3.656 c -0.115,0.118 -0.114,0.311 0.003,0.428 0.118,0.116 0.311,0.114 0.428,-0.004 l 0.424,-0.429 3.615,3.543 -1.36,1.377 c -0.087,0.087 -0.086,0.229 0.003,0.316 l 0.11,0.11 c 0.088,0.086 0.229,0.085 0.315,-0.003 l 1.152,-1.167 0.797,0.786 0.708,-0.707 0.38,0.38 -0.706,0.705 1.982,1.959 0.693,-0.693 0.381,0.38 -0.69,0.692 1.826,1.805 0.681,-0.68 0.38,0.38 -0.677,0.678 2.048,2.022 0.666,-0.664 0.38,0.38 -0.663,0.663 1.828,1.806 0.65,-0.652 0.381,0.382 -0.649,0.647 1.158,1.146 c 0.005,0.01 0.01,0.02 0.019,0.026 0.008,0.007 0.018,0.013 0.026,0.018 l 0.011,0.011 0.003,-0.004 c 0.032,0.012 0.067,0.006 0.098,-0.014 l -0.028,0.028 1.948,-0.012 0.128,0.126 -0.141,0.142 c -0.05,0.05 -0.05,0.129 10e-4,0.18 l 0.063,0.062 c 0.049,0.049 0.129,0.047 0.177,-0.002 l 0.143,-0.142 2.412,2.383 c 0.081,0.081 0.545,-0.037 0.805,-0.11 l 6.438,6.332 c 0.048,0.049 0.564,0.293 0.564,0.293 0,0 -0.247,-0.521 -0.296,-0.568" style="fill:#666;fill-opacity:1"/></g></g></svg>