<svg xmlns="http://www.w3.org/2000/svg" xmlns:svg="http://www.w3.org/2000/svg" id="svg3656" width="165.333" height="165.333" version="1.1" viewBox="0 0 155 155"><metadata id="metadata3661"/><g id="layer1" transform="translate(49.804409,-426.07828)"><rect style="fill:#ff7a7a;fill-opacity:0;stroke:none;stroke-width:40;stroke-miterlimit:4;stroke-dasharray:none;stroke-dashoffset:0;stroke-opacity:1" id="rect3685" width="155" height="155" x="-48.651" y="426.078"/><path id="path4480" d="m 10.360428,553.35606 0,-9.24445 18.4888,0 18.4889,0 0,9.24445 0,9.24444 -7.8222,0 c -7.3955,0 -7.8222,-0.19394 -7.8222,-3.55555 0,-2.60741 -0.7585,-3.55556 -2.8445,-3.55556 -2.0859,0 -2.8444,0.94815 -2.8444,3.55556 0,3.36161 -0.4267,3.55555 -7.8222,3.55555 l -7.8222,0 z M -2.1551725,552.3605 c -0.9387,-0.93866 -1.7067001,-3.17867 -1.7067001,-4.97778 0,-2.86815 0.7008001,-3.27111 5.6889001,-3.27111 4.9881,0 5.6889,0.40296 5.6889,3.27111 0,3.80903 -2.4472,6.68445 -5.6889,6.68445 -1.25149995,0 -3.0435,-0.768 -3.9822,-1.70667 z m 55.4667005,0 c -0.9387,-0.93866 -1.7067,-3.17867 -1.7067,-4.97778 0,-2.86815 0.7008,-3.27111 5.6889,-3.27111 4.9881,0 5.6889,0.40296 5.6889,3.27111 0,3.80903 -2.4472,6.68445 -5.6889,6.68445 -1.2516,0 -3.0436,-0.768 -3.9822,-1.70667 z m -65.706701,-38.11555 0,-24.17778 41.244401,0 41.2445,0 0,24.17778 0,24.17778 -41.2445,0 -41.244401,0 z m 69.688901,0 0,-19.91111 -28.4445,0 -28.44440045,0 0,19.91111 0,19.91111 28.44440045,0 28.4445,0 z m -41.8034,14.81701 c -2.2369,-5.8293 -1.0617,-7.7059 4.8256,-7.7059 3.1289,0 5.6889,-0.64 5.6889,-1.42222 0,-0.78222 -2.56,-1.42222 -5.6889,-1.42222 -3.1289,0 -5.6889,-0.64 -5.6889,-1.42223 0,-0.78222 2.56,-1.42222 5.6889,-1.42222 3.1289,0 5.6889,-0.64 5.6889,-1.42222 0,-0.78222 -2.88,-1.42222 -6.4,-1.42222 -3.52,0 -6.4,-0.64 -6.4,-1.42223 0,-0.78222 2.88,-1.42222 6.4,-1.42222 3.52,0 6.4,-0.64 6.4,-1.42222 0,-0.78222 -2.56,-1.42222 -5.6889,-1.42222 -3.1289,0 -5.6889,-0.64 -5.6889,-1.42222 0,-0.78223 2.56,-1.42223 5.6889,-1.42223 3.1289,0 5.6889,-0.64 5.6889,-1.42222 0,-0.78222 -2.24,-1.42222 -4.9778,-1.42222 -2.7378,0 -4.94285,-0.55767 -4.9778,-1.23726 -0.0631,-1.22756 7.5681,-2.00296 10.00234,-2.15997 -0.0796,-2.33092 5.83476,-2.36219 5.89884,-0.0787 1.42059,0.17554 9.54802,0.38995 9.57132,2.37317 -0.0366,0.61204 -1.57135,1.10278 -4.8502,1.10278 -2.7378,0 -4.9778,0.64 -4.9778,1.42222 0,0.78223 2.56,1.42223 5.6889,1.42223 3.1289,0 5.6889,0.64 5.6889,1.42222 0,0.78222 -2.56,1.42222 -5.6889,1.42222 -3.1289,0 -5.6889,0.64 -5.6889,1.42222 0,0.78223 2.88,1.42223 6.4,1.42223 3.52,0 6.4,0.64 6.4,1.42222 0,0.78222 -2.88,1.42222 -6.4,1.42222 -3.52,0 -6.4,0.64 -6.4,1.42222 0,0.78222 2.56,1.42222 5.6889,1.42222 3.1289,0 5.6889,0.64 5.6889,1.42223 0,0.78222 -2.56,1.42222 -5.6889,1.42222 -3.1289,0 -5.6889,0.64 -5.6889,1.42222 0,0.78222 2.56,1.42222 5.6889,1.42222 4.6599,0 5.6889,0.49346 5.6889,2.72813 0,7.83514 -3.8578,9.36372 -8.3697,3.31632 l -2.918,-3.91111 -0.045,3.91111 c -0.034,2.94794 -0.7455,3.91111 -2.8895,3.91111 -2.1439,0 -2.8555,-0.96317 -2.8895,-3.91111 l -0.045,-3.91111 -2.918,3.91111 c -3.2697,4.38247 -6.2123,5.03379 -7.5064,1.66146 z m -13.9964005,-47.56981 4.6447,-4.22498 21.9995005,0 21.9996,0 4.6447,4.22498 4.6446,4.22497 -31.2889,0 -31.2889005,0 z M 18.784328,468.84324 c -9.1613005,-9.16128 -2.8929,-24.28718 10.0649,-24.28718 12.9579,0 19.2263,15.1259 10.065,24.28718 -5.8541,5.85415 -14.2758,5.85415 -20.1299,0 z" style="fill:#666;fill-opacity:1"/></g></svg>