<svg xmlns="http://www.w3.org/2000/svg" xmlns:svg="http://www.w3.org/2000/svg" id="svg4375" width="25" height="25" version="1.1" viewBox="0 0 25 25"><metadata id="metadata4380"/><g id="layer1" transform="translate(-481.78571,-765.57648)"><g style="font-style:normal;font-variant:normal;font-weight:400;font-stretch:normal;font-size:38.54701614px;line-height:125%;font-family:icomoon;-inkscape-font-specification:icomoon;letter-spacing:0;word-spacing:0;fill:#333;fill-opacity:1;stroke:none;stroke-width:1px;stroke-linecap:butt;stroke-linejoin:miter;stroke-opacity:1" id="text4714"><path d="m 501.24594,774.98245 4.64015,-3.09344 -4.64015,-3.09343 -5.4135,0 0,-1.9334 q 0,-0.48335 -0.33835,-0.82169 -0.33834,-0.33834 -0.82169,-0.33834 l -0.77336,0 q -0.48335,0 -0.82169,0.33834 -0.33835,0.33834 -0.33835,0.82169 l 0,1.9334 -7.73358,0 0,6.18687 7.73358,0 0,1.54671 -6.96022,0 -3.09343,2.32008 3.09343,2.32007 6.96022,0 0,9.2803 3.09344,0 0,-9.2803 6.18686,0 0,-4.64015 -6.18686,0 0,-1.54671 5.4135,0 z" style="font-style:normal;font-variant:normal;font-weight:400;font-stretch:normal;font-size:24.74746323px;font-family:icomoon;-inkscape-font-specification:icomoon;fill:#333;fill-opacity:1" id="path4136"/></g></g></svg>